<?xml version="1.0" encoding="utf-8"?>
<!-- Generator: Adobe Illustrator 27.0.1, SVG Export Plug-In . SVG Version: 6.00 Build 0)  -->
<svg version="1.1" id="Calque_1" xmlns="http://www.w3.org/2000/svg" xmlns:xlink="http://www.w3.org/1999/xlink" x="0px" y="0px"
	 viewBox="0 0 2414 1372" style="enable-background:new 0 0 2414 1372;" xml:space="preserve">
<style type="text/css">
	.st0{fill:#E5E5E5;}
	.st1{clip-path:url(#SVGID_00000148633144494360823940000013507274640658110855_);}
</style>
<path class="st0" d="M1397,77c-182.17-29.76-328.86,38.9-500,119c-134.61,63-266.99,124.96-367,264
	c-85.32,118.61-52.54,161.87-166,438c-96.16,234.01-150.84,278.71-122,328c52.63,89.96,256.67-21.45,640-9
	c365.56,11.87,498.35,123.52,665,18c76.25-48.28,117.17-119.85,199-263c105.81-185.08,171.32-299.68,156-436
	C1875.95,304.23,1628.02,114.74,1397,77z"/>
<g>
	<defs>
		<path id="SVGID_1_" d="M1397,77c-182.17-29.76-328.86,38.9-500,119c-134.61,63-266.99,124.96-367,264
			c-85.32,118.61-52.54,161.87-166,438c-96.16,234.01-150.84,278.71-122,328c52.63,89.96,256.67-21.45,640-9
			c365.56,11.87,498.35,123.52,665,18c76.25-48.28,117.17-119.85,199-263c105.81-185.08,171.32-299.68,156-436
			C1875.95,304.23,1628.02,114.74,1397,77z"/>
	</defs>
	<clipPath id="SVGID_00000034800692891843297370000012142685852897450937_">
		<use xlink:href="#SVGID_1_"  style="overflow:visible;"/>
	</clipPath>
	<g style="clip-path:url(#SVGID_00000034800692891843297370000012142685852897450937_);">
		<circle cx="150.55" cy="173.2" r="3.75"/>
		<circle cx="229.51" cy="163.87" r="3.75"/>
		<circle cx="308.48" cy="154.53" r="3.75"/>
		<circle cx="387.44" cy="145.2" r="3.75"/>
		<circle cx="466.41" cy="135.86" r="3.75"/>
		<circle cx="545.37" cy="126.53" r="3.75"/>
		<circle cx="624.34" cy="117.19" r="3.75"/>
		<circle cx="703.3" cy="107.85" r="3.75"/>
		<circle cx="782.27" cy="98.52" r="3.75"/>
		<circle cx="861.23" cy="89.18" r="3.75"/>
		<circle cx="940.2" cy="79.85" r="3.75"/>
		<circle cx="1019.17" cy="70.51" r="3.75"/>
		<circle cx="1098.13" cy="61.18" r="3.75"/>
		<circle cx="1177.1" cy="51.84" r="3.75"/>
		<circle cx="1256.06" cy="42.51" r="3.75"/>
		<circle cx="1335.03" cy="33.17" r="3.75"/>
		<circle cx="1413.99" cy="23.84" r="3.75"/>
		<circle cx="1492.96" cy="14.5" r="3.75"/>
		<circle cx="1571.92" cy="5.17" r="3.75"/>
		<circle cx="1650.89" cy="-4.17" r="3.75"/>
		<circle cx="1729.86" cy="-13.5" r="3.75"/>
		<circle cx="1808.82" cy="-22.84" r="3.75"/>
	</g>
	<g style="clip-path:url(#SVGID_00000034800692891843297370000012142685852897450937_);">
		<circle cx="120.79" cy="245.19" r="3.75"/>
		<circle cx="199.76" cy="235.86" r="3.75"/>
		<circle cx="278.72" cy="226.52" r="3.75"/>
		<circle cx="357.69" cy="217.19" r="3.75"/>
		<circle cx="436.65" cy="207.85" r="3.75"/>
		<circle cx="515.62" cy="198.52" r="3.75"/>
		<circle cx="594.58" cy="189.18" r="3.75"/>
		<circle cx="673.55" cy="179.85" r="3.75"/>
		<circle cx="752.52" cy="170.51" r="3.75"/>
		<circle cx="831.48" cy="161.18" r="3.75"/>
		<circle cx="910.45" cy="151.84" r="3.75"/>
		<circle cx="989.41" cy="142.5" r="3.75"/>
		<circle cx="1068.38" cy="133.17" r="3.75"/>
		<circle cx="1147.34" cy="123.83" r="3.75"/>
		<circle cx="1226.31" cy="114.5" r="3.75"/>
		<circle cx="1305.27" cy="105.16" r="3.75"/>
		<circle cx="1384.24" cy="95.83" r="3.75"/>
		<circle cx="1463.21" cy="86.49" r="3.75"/>
		<circle cx="1542.17" cy="77.16" r="3.75"/>
		<circle cx="1621.14" cy="67.82" r="3.75"/>
		<circle cx="1700.1" cy="58.49" r="3.75"/>
		<circle cx="1779.07" cy="49.15" r="3.75"/>
	</g>
	<g style="clip-path:url(#SVGID_00000034800692891843297370000012142685852897450937_);">
		<circle cx="166.39" cy="307.27" r="3.75"/>
		<circle cx="245.36" cy="297.93" r="3.75"/>
		<circle cx="324.33" cy="288.6" r="3.75"/>
		<circle cx="403.29" cy="279.26" r="3.75"/>
		<circle cx="482.26" cy="269.93" r="3.75"/>
		<circle cx="561.22" cy="260.59" r="3.75"/>
		<circle cx="640.19" cy="251.26" r="3.75"/>
		<circle cx="719.15" cy="241.92" r="3.75"/>
		<circle cx="798.12" cy="232.59" r="3.75"/>
		<circle cx="877.08" cy="223.25" r="3.75"/>
		<circle cx="956.05" cy="213.92" r="3.75"/>
		<circle cx="1035.02" cy="204.58" r="3.75"/>
		<circle cx="1113.98" cy="195.25" r="3.75"/>
		<circle cx="1192.95" cy="185.91" r="3.75"/>
		<circle cx="1271.91" cy="176.57" r="3.75"/>
		<circle cx="1350.88" cy="167.24" r="3.75"/>
		<circle cx="1429.84" cy="157.9" r="3.75"/>
		<circle cx="1508.81" cy="148.57" r="3.75"/>
		<circle cx="1587.77" cy="139.23" r="3.75"/>
		<circle cx="1666.74" cy="129.9" r="3.75"/>
		<circle cx="1745.71" cy="120.56" r="3.75"/>
		<circle cx="1824.67" cy="111.23" r="3.75"/>
	</g>
	<g style="clip-path:url(#SVGID_00000034800692891843297370000012142685852897450937_);">
		<circle cx="136.64" cy="379.26" r="3.75"/>
		<circle cx="215.61" cy="369.92" r="3.75"/>
		<circle cx="294.57" cy="360.59" r="3.75"/>
		<circle cx="373.54" cy="351.25" r="3.75"/>
		<circle cx="452.5" cy="341.92" r="3.75"/>
		<circle cx="531.47" cy="332.58" r="3.75"/>
		<circle cx="610.43" cy="323.25" r="3.75"/>
		<circle cx="689.4" cy="313.91" r="3.75"/>
		<circle cx="768.36" cy="304.58" r="3.75"/>
		<circle cx="847.33" cy="295.24" r="3.75"/>
		<circle cx="926.3" cy="285.91" r="3.75"/>
		<circle cx="1005.26" cy="276.57" r="3.75"/>
		<circle cx="1084.23" cy="267.24" r="3.75"/>
		<circle cx="1163.19" cy="257.9" r="3.75"/>
		<circle cx="1242.16" cy="248.57" r="3.75"/>
		<circle cx="1321.12" cy="239.23" r="3.75"/>
		<circle cx="1400.09" cy="229.9" r="3.75"/>
		<circle cx="1479.05" cy="220.56" r="3.75"/>
		<circle cx="1558.02" cy="211.22" r="3.75"/>
		<circle cx="1636.99" cy="201.89" r="3.75"/>
		<circle cx="1715.95" cy="192.55" r="3.75"/>
		<circle cx="1794.92" cy="183.22" r="3.75"/>
	</g>
	<g style="clip-path:url(#SVGID_00000034800692891843297370000012142685852897450937_);">
		<circle cx="182.24" cy="441.33" r="3.75"/>
		<circle cx="261.21" cy="432" r="3.75"/>
		<circle cx="340.17" cy="422.66" r="3.75"/>
		<circle cx="419.14" cy="413.33" r="3.75"/>
		<circle cx="498.11" cy="403.99" r="3.75"/>
		<circle cx="577.07" cy="394.66" r="3.75"/>
		<circle cx="656.04" cy="385.32" r="3.75"/>
		<circle cx="735" cy="375.99" r="3.75"/>
		<circle cx="813.97" cy="366.65" r="3.75"/>
		<circle cx="892.93" cy="357.32" r="3.75"/>
		<circle cx="971.9" cy="347.98" r="3.75"/>
		<circle cx="1050.86" cy="338.65" r="3.75"/>
		<circle cx="1129.83" cy="329.31" r="3.75"/>
		<circle cx="1208.8" cy="319.98" r="3.75"/>
		<circle cx="1287.76" cy="310.64" r="3.75"/>
		<circle cx="1366.73" cy="301.31" r="3.75"/>
		<circle cx="1445.69" cy="291.97" r="3.75"/>
		<circle cx="1524.66" cy="282.64" r="3.75"/>
		<circle cx="1603.62" cy="273.3" r="3.75"/>
		<circle cx="1682.59" cy="263.97" r="3.75"/>
		<circle cx="1761.55" cy="254.63" r="3.75"/>
		<circle cx="1840.52" cy="245.29" r="3.75"/>
	</g>
	<g style="clip-path:url(#SVGID_00000034800692891843297370000012142685852897450937_);">
		<circle cx="152.49" cy="513.32" r="3.75"/>
		<circle cx="231.46" cy="503.99" r="3.75"/>
		<circle cx="310.42" cy="494.65" r="3.75"/>
		<circle cx="389.39" cy="485.32" r="3.75"/>
		<circle cx="468.35" cy="475.98" r="3.75"/>
		<circle cx="547.32" cy="466.65" r="3.75"/>
		<circle cx="626.28" cy="457.31" r="3.75"/>
		<circle cx="705.25" cy="447.98" r="3.75"/>
		<circle cx="784.21" cy="438.64" r="3.75"/>
		<circle cx="863.18" cy="429.31" r="3.75"/>
		<circle cx="942.14" cy="419.97" r="3.75"/>
		<circle cx="1021.11" cy="410.64" r="3.75"/>
		<circle cx="1100.08" cy="401.3" r="3.75"/>
		<circle cx="1179.04" cy="391.97" r="3.75"/>
		<circle cx="1258.01" cy="382.63" r="3.75"/>
		<circle cx="1336.97" cy="373.3" r="3.75"/>
		<circle cx="1415.94" cy="363.96" r="3.75"/>
		<circle cx="1494.9" cy="354.63" r="3.75"/>
		<circle cx="1573.87" cy="345.29" r="3.75"/>
		<circle cx="1652.83" cy="335.96" r="3.75"/>
		<circle cx="1731.8" cy="326.62" r="3.75"/>
		<circle cx="1810.77" cy="317.29" r="3.75"/>
	</g>
	<g style="clip-path:url(#SVGID_00000034800692891843297370000012142685852897450937_);">
		<circle cx="198.09" cy="575.4" r="3.75"/>
		<circle cx="277.06" cy="566.07" r="3.75"/>
		<circle cx="356.02" cy="556.73" r="3.75"/>
		<circle cx="434.99" cy="547.39" r="3.75"/>
		<circle cx="513.95" cy="538.06" r="3.75"/>
		<circle cx="592.92" cy="528.72" r="3.75"/>
		<circle cx="671.89" cy="519.39" r="3.75"/>
		<circle cx="750.85" cy="510.05" r="3.75"/>
		<circle cx="829.82" cy="500.72" r="3.75"/>
		<circle cx="908.78" cy="491.38" r="3.75"/>
		<circle cx="987.75" cy="482.05" r="3.75"/>
		<circle cx="1066.71" cy="472.71" r="3.75"/>
		<circle cx="1145.68" cy="463.38" r="3.75"/>
		<circle cx="1224.64" cy="454.04" r="3.75"/>
		<circle cx="1303.61" cy="444.71" r="3.75"/>
		<circle cx="1382.58" cy="435.37" r="3.75"/>
		<circle cx="1461.54" cy="426.04" r="3.75"/>
		<circle cx="1540.51" cy="416.7" r="3.75"/>
		<circle cx="1619.47" cy="407.37" r="3.75"/>
		<circle cx="1698.44" cy="398.03" r="3.75"/>
		<circle cx="1777.4" cy="388.7" r="3.75"/>
		<circle cx="1856.37" cy="379.36" r="3.75"/>
	</g>
	<g style="clip-path:url(#SVGID_00000034800692891843297370000012142685852897450937_);">
		<circle cx="168.34" cy="647.39" r="3.75"/>
		<circle cx="247.3" cy="638.06" r="3.75"/>
		<circle cx="326.27" cy="628.72" r="3.75"/>
		<circle cx="405.24" cy="619.39" r="3.75"/>
		<circle cx="484.2" cy="610.05" r="3.75"/>
		<circle cx="563.17" cy="600.72" r="3.75"/>
		<circle cx="642.13" cy="591.38" r="3.75"/>
		<circle cx="721.1" cy="582.04" r="3.75"/>
		<circle cx="800.06" cy="572.71" r="3.75"/>
		<circle cx="879.03" cy="563.37" r="3.75"/>
		<circle cx="957.99" cy="554.04" r="3.75"/>
		<circle cx="1036.96" cy="544.7" r="3.75"/>
		<circle cx="1115.93" cy="535.37" r="3.75"/>
		<circle cx="1194.89" cy="526.03" r="3.75"/>
		<circle cx="1273.86" cy="516.7" r="3.75"/>
		<circle cx="1352.82" cy="507.36" r="3.75"/>
		<circle cx="1431.79" cy="498.03" r="3.75"/>
		<circle cx="1510.75" cy="488.69" r="3.75"/>
		<circle cx="1589.72" cy="479.36" r="3.75"/>
		<circle cx="1668.68" cy="470.02" r="3.75"/>
		<circle cx="1747.65" cy="460.69" r="3.75"/>
		<circle cx="1826.61" cy="451.35" r="3.75"/>
	</g>
	<g style="clip-path:url(#SVGID_00000034800692891843297370000012142685852897450937_);">
		<circle cx="213.94" cy="709.47" r="3.75"/>
		<circle cx="292.91" cy="700.13" r="3.75"/>
		<circle cx="371.87" cy="690.8" r="3.75"/>
		<circle cx="450.84" cy="681.46" r="3.75"/>
		<circle cx="529.8" cy="672.13" r="3.75"/>
		<circle cx="608.77" cy="662.79" r="3.75"/>
		<circle cx="687.73" cy="653.46" r="3.75"/>
		<circle cx="766.7" cy="644.12" r="3.75"/>
		<circle cx="845.67" cy="634.79" r="3.75"/>
		<circle cx="924.63" cy="625.45" r="3.75"/>
		<circle cx="1003.6" cy="616.11" r="3.75"/>
		<circle cx="1082.56" cy="606.78" r="3.75"/>
		<circle cx="1161.53" cy="597.44" r="3.75"/>
		<circle cx="1240.49" cy="588.11" r="3.75"/>
		<circle cx="1319.46" cy="578.77" r="3.75"/>
		<circle cx="1398.42" cy="569.44" r="3.75"/>
		<circle cx="1477.39" cy="560.1" r="3.75"/>
		<circle cx="1556.36" cy="550.77" r="3.75"/>
		<circle cx="1635.32" cy="541.43" r="3.75"/>
		<circle cx="1714.29" cy="532.1" r="3.75"/>
		<circle cx="1793.25" cy="522.76" r="3.75"/>
		<circle cx="1872.22" cy="513.43" r="3.75"/>
	</g>
	<g style="clip-path:url(#SVGID_00000034800692891843297370000012142685852897450937_);">
		<circle cx="184.19" cy="781.46" r="3.75"/>
		<circle cx="263.15" cy="772.12" r="3.75"/>
		<circle cx="342.12" cy="762.79" r="3.75"/>
		<circle cx="421.08" cy="753.45" r="3.75"/>
		<circle cx="500.05" cy="744.12" r="3.75"/>
		<circle cx="579.02" cy="734.78" r="3.75"/>
		<circle cx="657.98" cy="725.45" r="3.75"/>
		<circle cx="736.95" cy="716.11" r="3.75"/>
		<circle cx="815.91" cy="706.78" r="3.75"/>
		<circle cx="894.88" cy="697.44" r="3.75"/>
		<circle cx="973.84" cy="688.11" r="3.75"/>
		<circle cx="1052.81" cy="678.77" r="3.75"/>
		<circle cx="1131.77" cy="669.44" r="3.75"/>
		<circle cx="1210.74" cy="660.1" r="3.75"/>
		<circle cx="1289.71" cy="650.77" r="3.75"/>
		<circle cx="1368.67" cy="641.43" r="3.75"/>
		<circle cx="1447.64" cy="632.09" r="3.75"/>
		<circle cx="1526.6" cy="622.76" r="3.75"/>
		<circle cx="1605.57" cy="613.42" r="3.75"/>
		<circle cx="1684.53" cy="604.09" r="3.75"/>
		<circle cx="1763.5" cy="594.75" r="3.75"/>
		<circle cx="1842.46" cy="585.42" r="3.75"/>
	</g>
	<g style="clip-path:url(#SVGID_00000034800692891843297370000012142685852897450937_);">
		<circle cx="229.79" cy="843.53" r="3.75"/>
		<circle cx="308.76" cy="834.2" r="3.75"/>
		<circle cx="387.72" cy="824.86" r="3.75"/>
		<circle cx="466.69" cy="815.53" r="3.75"/>
		<circle cx="545.65" cy="806.19" r="3.75"/>
		<circle cx="624.62" cy="796.86" r="3.75"/>
		<circle cx="703.58" cy="787.52" r="3.75"/>
		<circle cx="782.55" cy="778.19" r="3.75"/>
		<circle cx="861.52" cy="768.85" r="3.75"/>
		<circle cx="940.48" cy="759.52" r="3.75"/>
		<circle cx="1019.45" cy="750.18" r="3.75"/>
		<circle cx="1098.41" cy="740.85" r="3.75"/>
		<circle cx="1177.38" cy="731.51" r="3.75"/>
		<circle cx="1256.34" cy="722.18" r="3.75"/>
		<circle cx="1335.31" cy="712.84" r="3.75"/>
		<circle cx="1414.27" cy="703.51" r="3.75"/>
		<circle cx="1493.24" cy="694.17" r="3.75"/>
		<circle cx="1572.2" cy="684.83" r="3.75"/>
		<circle cx="1651.17" cy="675.5" r="3.75"/>
		<circle cx="1730.14" cy="666.16" r="3.75"/>
		<circle cx="1809.1" cy="656.83" r="3.75"/>
		<circle cx="1888.07" cy="647.49" r="3.75"/>
	</g>
	<g style="clip-path:url(#SVGID_00000034800692891843297370000012142685852897450937_);">
		<circle cx="200.04" cy="915.52" r="3.75"/>
		<circle cx="279" cy="906.19" r="3.75"/>
		<circle cx="357.97" cy="896.85" r="3.75"/>
		<circle cx="436.93" cy="887.52" r="3.75"/>
		<circle cx="515.9" cy="878.18" r="3.75"/>
		<circle cx="594.86" cy="868.85" r="3.75"/>
		<circle cx="673.83" cy="859.51" r="3.75"/>
		<circle cx="752.8" cy="850.18" r="3.75"/>
		<circle cx="831.76" cy="840.84" r="3.75"/>
		<circle cx="910.73" cy="831.51" r="3.75"/>
		<circle cx="989.69" cy="822.17" r="3.75"/>
		<circle cx="1068.66" cy="812.84" r="3.75"/>
		<circle cx="1147.62" cy="803.5" r="3.75"/>
		<circle cx="1226.59" cy="794.17" r="3.75"/>
		<circle cx="1305.55" cy="784.83" r="3.75"/>
		<circle cx="1384.52" cy="775.5" r="3.75"/>
		<circle cx="1463.49" cy="766.16" r="3.75"/>
		<circle cx="1542.45" cy="756.83" r="3.75"/>
		<circle cx="1621.42" cy="747.49" r="3.75"/>
		<circle cx="1700.38" cy="738.16" r="3.75"/>
		<circle cx="1779.35" cy="728.82" r="3.75"/>
		<circle cx="1858.31" cy="719.49" r="3.75"/>
	</g>
	<g style="clip-path:url(#SVGID_00000034800692891843297370000012142685852897450937_);">
		<circle cx="245.64" cy="977.6" r="3.75"/>
		<circle cx="324.61" cy="968.26" r="3.75"/>
		<circle cx="403.57" cy="958.93" r="3.75"/>
		<circle cx="482.54" cy="949.59" r="3.75"/>
		<circle cx="561.5" cy="940.26" r="3.75"/>
		<circle cx="640.47" cy="930.92" r="3.75"/>
		<circle cx="719.43" cy="921.59" r="3.75"/>
		<circle cx="798.4" cy="912.25" r="3.75"/>
		<circle cx="877.36" cy="902.92" r="3.75"/>
		<circle cx="956.33" cy="893.58" r="3.75"/>
		<circle cx="1035.3" cy="884.25" r="3.75"/>
		<circle cx="1114.26" cy="874.91" r="3.75"/>
		<circle cx="1193.23" cy="865.58" r="3.75"/>
		<circle cx="1272.19" cy="856.24" r="3.75"/>
		<circle cx="1351.16" cy="846.91" r="3.75"/>
		<circle cx="1430.12" cy="837.57" r="3.75"/>
		<circle cx="1509.09" cy="828.24" r="3.75"/>
		<circle cx="1588.05" cy="818.9" r="3.75"/>
		<circle cx="1667.02" cy="809.57" r="3.75"/>
		<circle cx="1745.99" cy="800.23" r="3.75"/>
		<circle cx="1824.95" cy="790.9" r="3.75"/>
		<circle cx="1903.92" cy="781.56" r="3.75"/>
	</g>
	<g style="clip-path:url(#SVGID_00000034800692891843297370000012142685852897450937_);">
		<circle cx="215.89" cy="1049.59" r="3.75"/>
		<circle cx="294.85" cy="1040.26" r="3.75"/>
		<circle cx="373.82" cy="1030.92" r="3.75"/>
		<circle cx="452.78" cy="1021.59" r="3.75"/>
		<circle cx="531.75" cy="1012.25" r="3.75"/>
		<circle cx="610.71" cy="1002.91" r="3.75"/>
		<circle cx="689.68" cy="993.58" r="3.75"/>
		<circle cx="768.64" cy="984.24" r="3.75"/>
		<circle cx="847.61" cy="974.91" r="3.75"/>
		<circle cx="926.58" cy="965.57" r="3.75"/>
		<circle cx="1005.54" cy="956.24" r="3.75"/>
		<circle cx="1084.51" cy="946.9" r="3.75"/>
		<circle cx="1163.47" cy="937.57" r="3.75"/>
		<circle cx="1242.44" cy="928.23" r="3.75"/>
		<circle cx="1321.4" cy="918.9" r="3.75"/>
		<circle cx="1400.37" cy="909.56" r="3.75"/>
		<circle cx="1479.33" cy="900.23" r="3.75"/>
		<circle cx="1558.3" cy="890.89" r="3.75"/>
		<circle cx="1637.27" cy="881.56" r="3.75"/>
		<circle cx="1716.23" cy="872.22" r="3.75"/>
		<circle cx="1795.2" cy="862.89" r="3.75"/>
		<circle cx="1874.16" cy="853.55" r="3.75"/>
	</g>
	<g style="clip-path:url(#SVGID_00000034800692891843297370000012142685852897450937_);">
		<circle cx="261.49" cy="1111.67" r="3.75"/>
		<circle cx="340.45" cy="1102.33" r="3.75"/>
		<circle cx="419.42" cy="1093" r="3.75"/>
		<circle cx="498.39" cy="1083.66" r="3.75"/>
		<circle cx="577.35" cy="1074.33" r="3.75"/>
		<circle cx="656.32" cy="1064.99" r="3.75"/>
		<circle cx="735.28" cy="1055.65" r="3.75"/>
		<circle cx="814.25" cy="1046.32" r="3.75"/>
		<circle cx="893.21" cy="1036.98" r="3.75"/>
		<circle cx="972.18" cy="1027.65" r="3.75"/>
		<circle cx="1051.14" cy="1018.31" r="3.75"/>
		<circle cx="1130.11" cy="1008.98" r="3.75"/>
		<circle cx="1209.08" cy="999.64" r="3.75"/>
		<circle cx="1288.04" cy="990.31" r="3.75"/>
		<circle cx="1367.01" cy="980.97" r="3.75"/>
		<circle cx="1445.97" cy="971.64" r="3.75"/>
		<circle cx="1524.94" cy="962.3" r="3.75"/>
		<circle cx="1603.9" cy="952.97" r="3.75"/>
		<circle cx="1682.87" cy="943.63" r="3.75"/>
		<circle cx="1761.83" cy="934.3" r="3.75"/>
		<circle cx="1840.8" cy="924.96" r="3.75"/>
		<circle cx="1919.77" cy="915.63" r="3.75"/>
	</g>
	<g style="clip-path:url(#SVGID_00000034800692891843297370000012142685852897450937_);">
		<circle cx="231.74" cy="1183.66" r="3.75"/>
		<circle cx="310.7" cy="1174.32" r="3.75"/>
		<circle cx="389.67" cy="1164.99" r="3.75"/>
		<circle cx="468.63" cy="1155.65" r="3.75"/>
		<circle cx="547.6" cy="1146.32" r="3.75"/>
		<circle cx="626.56" cy="1136.98" r="3.75"/>
		<circle cx="705.53" cy="1127.65" r="3.75"/>
		<circle cx="784.49" cy="1118.31" r="3.75"/>
		<circle cx="863.46" cy="1108.98" r="3.75"/>
		<circle cx="942.42" cy="1099.64" r="3.75"/>
		<circle cx="1021.39" cy="1090.31" r="3.75"/>
		<circle cx="1100.36" cy="1080.97" r="3.75"/>
		<circle cx="1179.32" cy="1071.63" r="3.75"/>
		<circle cx="1258.29" cy="1062.3" r="3.75"/>
		<circle cx="1337.25" cy="1052.96" r="3.75"/>
		<circle cx="1416.22" cy="1043.63" r="3.75"/>
		<circle cx="1495.18" cy="1034.29" r="3.75"/>
		<circle cx="1574.15" cy="1024.96" r="3.75"/>
		<circle cx="1653.11" cy="1015.62" r="3.75"/>
		<circle cx="1732.08" cy="1006.29" r="3.75"/>
		<circle cx="1811.05" cy="996.95" r="3.75"/>
		<circle cx="1890.01" cy="987.62" r="3.75"/>
	</g>
	<g style="clip-path:url(#SVGID_00000034800692891843297370000012142685852897450937_);">
		<circle cx="277.34" cy="1245.73" r="3.75"/>
		<circle cx="356.3" cy="1236.4" r="3.75"/>
		<circle cx="435.27" cy="1227.06" r="3.75"/>
		<circle cx="514.23" cy="1217.73" r="3.75"/>
		<circle cx="593.2" cy="1208.39" r="3.75"/>
		<circle cx="672.17" cy="1199.06" r="3.75"/>
		<circle cx="751.13" cy="1189.72" r="3.75"/>
		<circle cx="830.1" cy="1180.39" r="3.75"/>
		<circle cx="909.06" cy="1171.05" r="3.75"/>
		<circle cx="988.03" cy="1161.72" r="3.75"/>
		<circle cx="1066.99" cy="1152.38" r="3.75"/>
		<circle cx="1145.96" cy="1143.05" r="3.75"/>
		<circle cx="1224.92" cy="1133.71" r="3.75"/>
		<circle cx="1303.89" cy="1124.37" r="3.75"/>
		<circle cx="1382.86" cy="1115.04" r="3.75"/>
		<circle cx="1461.82" cy="1105.7" r="3.75"/>
		<circle cx="1540.79" cy="1096.37" r="3.75"/>
		<circle cx="1619.75" cy="1087.03" r="3.75"/>
		<circle cx="1698.72" cy="1077.7" r="3.75"/>
		<circle cx="1777.68" cy="1068.36" r="3.75"/>
		<circle cx="1856.65" cy="1059.03" r="3.75"/>
		<circle cx="1935.61" cy="1049.69" r="3.75"/>
	</g>
	<g style="clip-path:url(#SVGID_00000034800692891843297370000012142685852897450937_);">
		<circle cx="247.58" cy="1317.72" r="3.75"/>
		<circle cx="326.55" cy="1308.39" r="3.75"/>
		<circle cx="405.52" cy="1299.05" r="3.75"/>
		<circle cx="484.48" cy="1289.72" r="3.75"/>
		<circle cx="563.45" cy="1280.38" r="3.75"/>
		<circle cx="642.41" cy="1271.05" r="3.75"/>
		<circle cx="721.38" cy="1261.71" r="3.75"/>
		<circle cx="800.34" cy="1252.38" r="3.75"/>
		<circle cx="879.31" cy="1243.04" r="3.75"/>
		<circle cx="958.27" cy="1233.71" r="3.75"/>
		<circle cx="1037.24" cy="1224.37" r="3.75"/>
		<circle cx="1116.21" cy="1215.04" r="3.75"/>
		<circle cx="1195.17" cy="1205.7" r="3.75"/>
		<circle cx="1274.14" cy="1196.37" r="3.75"/>
		<circle cx="1353.1" cy="1187.03" r="3.75"/>
		<circle cx="1432.07" cy="1177.7" r="3.75"/>
		<circle cx="1511.03" cy="1168.36" r="3.75"/>
		<circle cx="1590" cy="1159.03" r="3.75"/>
		<circle cx="1668.96" cy="1149.69" r="3.75"/>
		<circle cx="1747.93" cy="1140.35" r="3.75"/>
		<circle cx="1826.9" cy="1131.02" r="3.75"/>
		<circle cx="1905.86" cy="1121.68" r="3.75"/>
	</g>
	<g style="clip-path:url(#SVGID_00000034800692891843297370000012142685852897450937_);">
		<circle cx="293.19" cy="1379.8" r="3.75"/>
		<circle cx="372.15" cy="1370.46" r="3.75"/>
		<circle cx="451.12" cy="1361.13" r="3.75"/>
		<circle cx="530.08" cy="1351.79" r="3.75"/>
		<circle cx="609.05" cy="1342.46" r="3.75"/>
		<circle cx="688.02" cy="1333.12" r="3.75"/>
		<circle cx="766.98" cy="1323.79" r="3.75"/>
		<circle cx="845.95" cy="1314.45" r="3.75"/>
		<circle cx="924.91" cy="1305.12" r="3.75"/>
		<circle cx="1003.88" cy="1295.78" r="3.75"/>
		<circle cx="1082.84" cy="1286.45" r="3.75"/>
		<circle cx="1161.81" cy="1277.11" r="3.75"/>
		<circle cx="1240.77" cy="1267.78" r="3.75"/>
		<circle cx="1319.74" cy="1258.44" r="3.75"/>
		<circle cx="1398.7" cy="1249.11" r="3.75"/>
		<circle cx="1477.67" cy="1239.77" r="3.75"/>
		<circle cx="1556.64" cy="1230.44" r="3.75"/>
		<circle cx="1635.6" cy="1221.1" r="3.75"/>
		<circle cx="1714.57" cy="1211.77" r="3.75"/>
		<circle cx="1793.53" cy="1202.43" r="3.75"/>
		<circle cx="1872.5" cy="1193.09" r="3.75"/>
		<circle cx="1951.46" cy="1183.76" r="3.75"/>
	</g>
	<g style="clip-path:url(#SVGID_00000034800692891843297370000012142685852897450937_);">
		<circle cx="178.22" cy="1356.21" r="3.75"/>
		<circle cx="257.74" cy="1356.21" r="3.75"/>
		<circle cx="337.25" cy="1356.21" r="3.75"/>
		<circle cx="416.77" cy="1356.21" r="3.75"/>
		<circle cx="496.29" cy="1356.21" r="3.75"/>
		<circle cx="575.8" cy="1356.21" r="3.75"/>
		<circle cx="655.32" cy="1356.21" r="3.75"/>
		<circle cx="734.83" cy="1356.21" r="3.75"/>
		<circle cx="814.35" cy="1356.21" r="3.75"/>
		<circle cx="893.86" cy="1356.21" r="3.75"/>
		<circle cx="973.38" cy="1356.21" r="3.75"/>
		<circle cx="1052.89" cy="1356.21" r="3.75"/>
		<circle cx="1132.41" cy="1356.21" r="3.75"/>
		<circle cx="1211.92" cy="1356.21" r="3.75"/>
		<circle cx="1291.44" cy="1356.21" r="3.75"/>
		<circle cx="1370.96" cy="1356.21" r="3.75"/>
		<circle cx="1450.47" cy="1356.21" r="3.75"/>
		<circle cx="1529.99" cy="1356.21" r="3.75"/>
		<circle cx="1609.5" cy="1356.21" r="3.75"/>
		<circle cx="1689.02" cy="1356.21" r="3.75"/>
		<circle cx="1768.53" cy="1356.21" r="3.75"/>
		<circle cx="1848.05" cy="1356.21" r="3.75"/>
	</g>
</g>
</svg>
