<svg width="22" height="20" viewBox="0 0 22 20" fill="none" xmlns="http://www.w3.org/2000/svg">
<path d="M7.375 7.75C7.375 7.84946 7.33549 7.94484 7.26517 8.01517C7.19484 8.08549 7.09946 8.125 7 8.125C6.90054 8.125 6.80516 8.08549 6.73484 8.01517C6.66451 7.94484 6.625 7.84946 6.625 7.75C6.625 7.65055 6.66451 7.55516 6.73484 7.48484C6.80516 7.41451 6.90054 7.375 7 7.375C7.09946 7.375 7.19484 7.41451 7.26517 7.48484C7.33549 7.55516 7.375 7.65055 7.375 7.75ZM7.375 7.75H7M11.125 7.75C11.125 7.84946 11.0855 7.94484 11.0152 8.01517C10.9448 8.08549 10.8495 8.125 10.75 8.125C10.6505 8.125 10.5552 8.08549 10.4848 8.01517C10.4145 7.94484 10.375 7.84946 10.375 7.75C10.375 7.65055 10.4145 7.55516 10.4848 7.48484C10.5552 7.41451 10.6505 7.375 10.75 7.375C10.8495 7.375 10.9448 7.41451 11.0152 7.48484C11.0855 7.55516 11.125 7.65055 11.125 7.75ZM11.125 7.75H10.75M14.875 7.75C14.875 7.84946 14.8355 7.94484 14.7652 8.01517C14.6948 8.08549 14.5995 8.125 14.5 8.125C14.4005 8.125 14.3052 8.08549 14.2348 8.01517C14.1645 7.94484 14.125 7.84946 14.125 7.75C14.125 7.65055 14.1645 7.55516 14.2348 7.48484C14.3052 7.41451 14.4005 7.375 14.5 7.375C14.5995 7.375 14.6948 7.41451 14.7652 7.48484C14.8355 7.55516 14.875 7.65055 14.875 7.75ZM14.875 7.75H14.5M1 10.76C1 12.36 2.123 13.754 3.707 13.987C4.794 14.147 5.892 14.27 7 14.356V19L11.184 14.817C11.3912 14.6107 11.6697 14.4918 11.962 14.485C13.9136 14.437 15.8605 14.2707 17.792 13.987C19.377 13.754 20.5 12.361 20.5 10.759V4.741C20.5 3.139 19.377 1.746 17.793 1.513C15.461 1.17072 13.107 0.99926 10.75 1C8.358 1 6.006 1.175 3.707 1.513C2.123 1.746 1 3.14 1 4.741V10.759V10.76Z" stroke="black" stroke-width="1.5" stroke-linecap="round" stroke-linejoin="round"/>
</svg>
